<svg xmlns="http://www.w3.org/2000/svg" xmlns:xlink="http://www.w3.org/1999/xlink" width="500" zoomAndPan="magnify" viewBox="0 0 375 374.999991" height="500" preserveAspectRatio="xMidYMid meet" version="1.0"><defs><clipPath id="e35e02ad96"><path d="M 309 213 L 326.867188 213 L 326.867188 222 L 309 222 Z M 309 213 " clip-rule="nonzero"/></clipPath><clipPath id="26dbd27092"><path d="M 108 43.917969 L 263 43.917969 L 263 152 L 108 152 Z M 108 43.917969 " clip-rule="nonzero"/></clipPath></defs><path fill="#d0d2d3" d="M 185.332031 107.503906 C 183.230469 107.503906 181.140625 107.503906 179.070312 107.503906 C 180.382812 109.054688 181.476562 110.746094 182.351562 112.578125 L 185.726562 112.578125 C 190.6875 112.578125 195.535156 112.671875 200.273438 112.859375 C 199.609375 110.859375 198.511719 109.136719 196.976562 107.695312 C 193.179688 107.558594 189.277344 107.503906 185.332031 107.503906 Z M 185.332031 107.503906 " fill-opacity="1" fill-rule="nonzero"/><path fill="#d0d2d3" d="M 317.0625 179.585938 C 314.816406 163.941406 303.269531 152.976562 288.285156 150.523438 C 288.285156 149.238281 288.339844 147.96875 288.339844 146.671875 C 288.339844 141.179688 287.429688 130.441406 287.429688 130.429688 C 286.328125 120.785156 260.066406 112.578125 223.226562 109.203125 C 223.046875 110.964844 222.738281 112.699219 222.296875 114.414062 C 252.320312 117.621094 273.140625 124.667969 273.140625 132.839844 C 273.140625 144.09375 233.996094 153.101562 185.726562 153.101562 C 137.453125 153.101562 98.34375 144.09375 98.34375 132.839844 C 98.34375 124.058594 122.300781 116.585938 155.855469 113.703125 C 154.738281 112.140625 153.84375 110.457031 153.179688 108.652344 C 112.519531 111.8125 83.15625 120.636719 83.15625 131.0625 L 83.15625 146.671875 C 83.15625 193.304688 104.863281 233.960938 136.777344 254.863281 C 137.273438 269.699219 158.992188 281.640625 185.746094 281.640625 C 212.503906 281.640625 234.210938 269.699219 234.71875 254.863281 C 243.484375 249.066406 251.230469 242.125 257.953125 234.042969 C 260.203125 234.242188 262.402344 234.34375 264.554688 234.34375 C 282.035156 234.34375 297.402344 227.851562 307.273438 215.851562 C 309.324219 213.347656 311.089844 210.65625 312.570312 207.777344 C 314.050781 204.898438 315.210938 201.898438 316.054688 198.769531 C 316.898438 195.644531 317.40625 192.464844 317.578125 189.230469 C 317.746094 185.996094 317.574219 182.78125 317.0625 179.585938 Z M 295.851562 202.3125 C 290.230469 209.0625 281.515625 213.339844 271.265625 214.636719 C 275.105469 207.636719 278.304688 200.355469 280.871094 192.792969 C 283.4375 185.234375 285.328125 177.503906 286.542969 169.613281 C 295.085938 171.085938 300.335938 176.769531 301.246094 182.949219 C 301.515625 184.664062 301.601562 186.386719 301.5 188.117188 C 301.398438 189.847656 301.117188 191.546875 300.652344 193.21875 C 300.1875 194.890625 299.546875 196.492188 298.738281 198.023438 C 297.929688 199.554688 296.964844 200.984375 295.851562 202.3125 Z M 295.851562 202.3125 " fill-opacity="1" fill-rule="nonzero"/><path fill="#391c10" d="M 137.507812 181.949219 C 137.375 181.835938 137.277344 181.695312 137.21875 181.53125 L 136.824219 180.597656 C 137.679688 179.097656 138.257812 177.496094 138.554688 175.792969 C 138.753906 174.667969 138.753906 173.539062 138.554688 172.414062 C 138.171875 169.9375 134.867188 171.066406 133.519531 172.03125 C 132.570312 172.863281 131.777344 173.816406 131.136719 174.902344 C 129.65625 177 128.292969 179.167969 127.042969 181.410156 C 126.132812 183.050781 125.289062 184.707031 124.3125 186.351562 C 123.441406 187.898438 122.660156 189.496094 121.972656 191.132812 C 120.648438 194.601562 118.972656 197.886719 117.9375 201.535156 C 117.589844 202.851562 117.21875 204.292969 116.925781 205.609375 C 116.566406 207.578125 116.699219 209.457031 116.417969 211.359375 C 116.371094 211.753906 116.394531 212.148438 116.488281 212.535156 C 116.582031 212.921875 116.738281 213.277344 116.964844 213.605469 C 117.1875 213.9375 117.464844 214.214844 117.792969 214.441406 C 118.117188 214.667969 118.472656 214.832031 118.859375 214.929688 C 121.011719 215.53125 123.160156 215.53125 125.3125 214.929688 C 127.070312 214.285156 128.707031 213.40625 130.214844 212.292969 C 132.496094 210.734375 134.652344 209.011719 136.675781 207.128906 C 138.628906 205.613281 140.335938 203.855469 141.792969 201.859375 C 143.175781 199.96875 144.535156 198.136719 145.964844 196.234375 C 146.050781 196.019531 146.195312 195.855469 146.402344 195.75 C 147.199219 195.414062 148.03125 195.230469 148.898438 195.195312 C 148.828125 195.382812 148.796875 195.574219 148.796875 195.769531 C 148.71875 195.894531 148.503906 196.074219 148.558594 196.210938 C 148.71875 196.988281 148.132812 197.527344 147.761719 198.078125 C 147.351562 198.679688 146.902344 199.25 146.414062 199.789062 C 144.320312 202.289062 142.65625 205.261719 140.261719 207.523438 C 134.507812 212.8125 127.425781 217.652344 119.355469 219.65625 C 117.324219 220.160156 115.296875 220.128906 113.28125 219.566406 C 112.261719 219.25 111.375 218.710938 110.617188 217.957031 C 109.753906 217.167969 109.082031 216.234375 108.609375 215.164062 C 108.132812 214.09375 107.890625 212.972656 107.886719 211.800781 C 107.527344 204.574219 110.136719 197.796875 112.742188 191.132812 C 113.742188 188.546875 114.722656 186.078125 115.96875 183.582031 C 118.351562 178.820312 120.804688 174.394531 125.234375 171.199219 C 127.195312 169.785156 129.367188 168.886719 131.753906 168.5 C 134.25 167.90625 136.765625 167.789062 139.308594 168.136719 C 139.667969 168.207031 140.003906 168.328125 140.324219 168.507812 C 140.644531 168.683594 140.929688 168.902344 141.179688 169.171875 C 141.429688 169.4375 141.632812 169.738281 141.785156 170.070312 C 141.941406 170.398438 142.039062 170.746094 142.085938 171.109375 C 142.183594 171.730469 142.226562 172.359375 142.207031 172.988281 C 142.207031 173.632812 142.207031 174.285156 142.207031 174.914062 C 142.132812 175.519531 141.996094 176.113281 141.804688 176.691406 C 141.515625 177.992188 141.003906 179.199219 140.261719 180.304688 C 140.117188 180.484375 139.960938 180.722656 139.8125 180.914062 C 139.417969 181.417969 139 181.902344 138.554688 182.367188 C 138.238281 182.265625 137.902344 182.105469 137.507812 181.949219 Z M 137.507812 181.949219 " fill-opacity="1" fill-rule="nonzero"/><path fill="#391c10" d="M 157.6875 188.105469 C 157.550781 188.210938 157.429688 188.328125 157.328125 188.464844 C 157.210938 188.796875 157 189.046875 156.6875 189.210938 C 156.5 189.578125 156.253906 189.910156 155.957031 190.199219 C 155.625 190.730469 155.367188 191.296875 155.191406 191.898438 C 154.789062 193.214844 154.371094 194.613281 153.820312 195.929688 C 153.4375 196.808594 153.179688 197.753906 152.855469 198.640625 C 152.527344 199.53125 152 200.328125 151.730469 201.207031 C 151.699219 201.320312 151.648438 201.425781 151.585938 201.523438 C 151.039062 202.210938 150.804688 202.992188 150.886719 203.863281 C 150.886719 204.765625 150.886719 205.664062 151.011719 206.566406 C 151.015625 206.910156 151.160156 207.175781 151.449219 207.363281 C 151.707031 207.636719 152.042969 207.90625 152.304688 208.1875 C 152.605469 208.453125 152.949219 208.535156 153.335938 208.433594 C 154.535156 208.222656 155.660156 207.8125 156.710938 207.195312 C 157.203125 206.902344 157.835938 206.609375 158.339844 206.25 C 158.65625 206.066406 158.945312 205.84375 159.207031 205.585938 C 159.78125 205.117188 160.289062 204.578125 160.722656 203.976562 C 160.722656 203.976562 160.800781 203.976562 160.800781 203.851562 C 160.945312 203.449219 161.164062 203.097656 161.464844 202.792969 C 161.527344 202.648438 161.582031 202.5 161.621094 202.34375 C 161.207031 202.121094 160.804688 201.867188 160.421875 201.589844 C 159.289062 200.867188 158.328125 199.96875 157.53125 198.890625 C 157.207031 198.441406 156.910156 197.976562 156.644531 197.492188 C 156.269531 196.71875 156.058594 195.898438 156.007812 195.039062 C 155.957031 194.179688 156.070312 193.34375 156.351562 192.53125 C 156.667969 191.558594 157.09375 190.640625 157.632812 189.773438 C 157.644531 189.722656 157.671875 189.679688 157.710938 189.648438 C 158.25 189.480469 158.554688 188.917969 159.160156 188.882812 C 159.433594 188.886719 159.703125 188.855469 159.96875 188.792969 C 160.851562 188.8125 161.652344 189.082031 162.363281 189.601562 C 163.453125 190.027344 164.324219 190.722656 164.972656 191.695312 C 165.429688 192.476562 165.644531 193.316406 165.625 194.21875 C 165.625 194.613281 165.738281 194.9375 165.792969 195.253906 C 165.933594 196.089844 165.933594 196.925781 165.792969 197.761719 C 165.703125 198.40625 165.210938 198.890625 165.117188 199.472656 C 165.027344 200.058594 164.949219 200.296875 164.792969 200.800781 C 164.996094 200.800781 165.128906 200.949219 165.265625 200.949219 C 165.726562 200.960938 166.1875 200.933594 166.648438 200.871094 C 169.476562 200.457031 171.945312 199.285156 174.054688 197.359375 C 174.195312 197.230469 174.308594 197.082031 174.40625 196.917969 C 174.539062 196.796875 174.617188 196.605469 174.753906 196.535156 C 175 196.4375 175.246094 196.4375 175.496094 196.535156 C 175.816406 196.636719 176.085938 196.8125 176.304688 197.066406 C 175.945312 198.089844 172.933594 200.441406 171.988281 200.757812 C 170.75 201.105469 169.628906 201.882812 168.378906 202.253906 C 167.335938 202.6875 166.257812 202.820312 165.140625 202.660156 C 164.652344 202.585938 164.171875 202.609375 163.691406 202.726562 C 163.335938 202.832031 163.097656 203.058594 162.984375 203.414062 C 162.617188 204 162.289062 204.609375 162.003906 205.238281 C 161.554688 206.117188 160.5 206.578125 159.914062 207.332031 C 159.507812 207.882812 159.027344 208.359375 158.476562 208.761719 C 157.824219 209.109375 157.351562 209.605469 156.675781 209.953125 C 155.859375 210.503906 154.960938 210.777344 153.976562 210.773438 C 152.921875 210.550781 151.949219 210.132812 151.054688 209.527344 C 149.140625 208.441406 147.644531 206.9375 146.558594 205.023438 C 146.164062 204.042969 145.980469 203.019531 146.007812 201.960938 C 145.929688 200.804688 145.960938 199.648438 146.097656 198.496094 C 146.320312 197.414062 146.644531 196.363281 147.066406 195.34375 C 147.710938 193.859375 148.460938 192.429688 149.3125 191.054688 C 149.550781 190.613281 149.867188 190.238281 150.257812 189.929688 C 150.695312 189.5 151.191406 189.019531 151.628906 188.535156 C 152.078125 188.15625 152.5625 187.84375 153.089844 187.589844 C 153.855469 187.117188 154.621094 186.777344 155.453125 186.304688 C 155.769531 186.113281 156.105469 186.066406 156.464844 186.171875 C 157.140625 186.257812 157.753906 186.5 158.304688 186.902344 C 158.3125 187.414062 158.109375 187.8125 157.6875 188.105469 Z M 162.882812 199.363281 C 162.875 199.226562 162.902344 199.101562 162.960938 198.980469 C 163.496094 198.28125 163.707031 197.5 163.601562 196.625 C 163.699219 195.542969 163.5625 194.488281 163.183594 193.464844 C 162.796875 192.953125 162.527344 192.386719 162.375 191.765625 L 162.375 191.695312 C 162.242188 191.628906 162.183594 191.503906 162.050781 191.492188 C 161.871094 191.484375 161.753906 191.570312 161.703125 191.742188 C 161.628906 191.960938 161.527344 192.167969 161.398438 192.359375 C 161.054688 193.027344 160.796875 193.722656 160.632812 194.453125 C 160.609375 194.589844 160.558594 194.714844 160.476562 194.824219 C 160.03125 195.59375 159.925781 196.402344 160.160156 197.257812 C 160.390625 198.078125 160.765625 198.832031 161.285156 199.507812 C 161.613281 199.847656 161.871094 200.238281 162.34375 200.320312 C 162.644531 200.015625 162.972656 199.765625 162.882812 199.316406 Z M 162.882812 199.363281 " fill-opacity="1" fill-rule="nonzero"/><path fill="#391c10" d="M 180.710938 210.5625 C 181.355469 210.117188 182.054688 209.800781 182.8125 209.617188 C 183.84375 209.265625 184.792969 208.757812 185.65625 208.097656 C 186.589844 207.359375 187.5625 206.675781 188.570312 206.046875 C 189.09375 205.730469 189.574219 205.355469 190.007812 204.921875 C 190.625 204.335938 191.132812 203.796875 191.796875 203.109375 C 192.085938 202.847656 192.359375 202.570312 192.617188 202.277344 C 193.089844 201.691406 193.5625 201.152344 194.03125 200.601562 C 194.910156 199.566406 195.785156 198.347656 196.664062 197.359375 C 196.84375 197.101562 196.84375 196.847656 196.664062 196.59375 C 197.152344 196.261719 197.691406 196.105469 198.28125 196.121094 C 198.203125 196.347656 198.074219 196.539062 197.890625 196.695312 C 197.648438 196.992188 197.449219 197.320312 197.292969 197.671875 C 197.292969 197.742188 197.226562 197.863281 197.226562 197.933594 C 197.261719 198.386719 197.109375 198.761719 196.765625 199.058594 L 195.957031 200.039062 C 195.550781 200.417969 195.144531 200.8125 194.832031 201.164062 C 194.699219 201.277344 194.585938 201.410156 194.492188 201.558594 C 194.410156 201.972656 194.207031 202.316406 193.886719 202.59375 C 193.429688 203.078125 192.925781 203.507812 192.378906 203.886719 C 191.789062 204.3125 191.265625 204.808594 190.808594 205.371094 C 190.789062 205.46875 190.742188 205.550781 190.671875 205.621094 C 189.984375 206.015625 189.433594 206.589844 188.738281 206.972656 C 188.078125 207.34375 187.457031 207.773438 186.871094 208.253906 C 186.257812 208.828125 185.558594 209.273438 184.78125 209.59375 C 184.09375 209.910156 183.464844 210.234375 182.769531 210.605469 C 182.488281 210.730469 182.410156 210.867188 182.554688 211.125 L 182.757812 211.507812 C 183.027344 211.890625 183.375 212.285156 183.65625 212.632812 C 184.402344 213.53125 185 214.519531 185.457031 215.59375 C 185.554688 216.261719 185.695312 216.921875 185.871094 217.574219 C 186.523438 218.914062 186.898438 220.328125 186.996094 221.816406 C 186.898438 223.605469 186.300781 225.207031 185.207031 226.625 C 184.785156 227.226562 184.210938 227.605469 183.488281 227.75 C 183.207031 227.804688 182.914062 227.929688 182.566406 227.996094 C 182.152344 228.09375 181.742188 228.09375 181.328125 227.996094 C 180.917969 227.902344 180.546875 227.722656 180.21875 227.457031 C 179.886719 227.132812 179.582031 226.785156 179.296875 226.421875 C 179.015625 226.09375 178.8125 225.710938 178.53125 225.296875 C 177.886719 224.253906 177.316406 223.179688 176.8125 222.066406 C 176.765625 221.871094 176.675781 221.695312 176.539062 221.546875 C 176.265625 221.066406 176.132812 220.546875 176.136719 219.992188 C 176.136719 219.679688 176.011719 219.417969 175.945312 219.160156 C 175.59375 217.949219 175.3125 216.722656 175.101562 215.480469 C 175.101562 215.234375 175.101562 215.042969 175.101562 214.78125 C 175.132812 213.871094 175.058594 212.972656 174.878906 212.082031 C 174.695312 210.957031 174.585938 209.707031 174.394531 208.546875 C 174.394531 208.289062 174.394531 208.027344 174.394531 207.769531 C 174.269531 207.132812 174.214844 206.492188 174.226562 205.84375 C 174.226562 205.328125 174.191406 204.816406 174.125 204.304688 C 174.125 204.042969 174.125 203.851562 174.125 203.59375 C 174.222656 202.398438 174.25 201.203125 174.203125 200.003906 C 174.203125 199.660156 174.230469 199.316406 174.292969 198.980469 C 174.515625 198.269531 174.671875 197.546875 174.753906 196.808594 C 174.910156 195.679688 175.136719 194.632812 175.292969 193.542969 C 175.675781 191.5625 176.113281 189.582031 176.628906 187.542969 C 176.699219 187.09375 176.84375 186.644531 176.921875 186.136719 C 177.003906 185.417969 177.210938 184.738281 177.550781 184.097656 C 177.957031 183.269531 178.308594 182.417969 178.597656 181.542969 C 179.148438 179.890625 179.835938 178.289062 180.386719 176.636719 C 181.746094 173.042969 183.46875 169.636719 185.558594 166.414062 C 186.277344 165.445312 187.097656 164.566406 188.019531 163.78125 C 188.585938 163.203125 189.242188 162.757812 189.988281 162.445312 C 190.738281 162.132812 191.515625 161.976562 192.324219 161.980469 C 194.765625 161.765625 197.507812 161.472656 199.597656 163.105469 C 201.363281 164.480469 201.949219 167.292969 201.734375 169.410156 C 201.578125 170.703125 201.207031 171.929688 200.96875 173.15625 C 200.914062 173.347656 200.84375 173.539062 200.789062 173.730469 C 200.597656 174.277344 200.480469 174.835938 200.429688 175.410156 C 200.40625 175.597656 200.339844 175.769531 200.238281 175.925781 C 200.113281 176.503906 199.929688 177.066406 199.6875 177.605469 C 199.578125 177.917969 199.542969 178.242188 199.574219 178.570312 C 199.558594 178.730469 199.519531 178.878906 199.453125 179.023438 C 199.238281 179.765625 198.941406 180.476562 198.5625 181.148438 C 198.238281 181.734375 197.980469 182.386719 197.664062 183.03125 C 197.152344 184.066406 196.542969 185.035156 195.832031 185.945312 C 195.574219 186.203125 195.371094 186.585938 195.113281 186.84375 C 194.71875 187.363281 194.449219 187.972656 194.054688 188.589844 C 193.832031 188.910156 193.589844 189.214844 193.324219 189.5 C 192.660156 190.074219 192.054688 190.730469 191.390625 191.371094 C 190.917969 191.820312 190.378906 192.269531 189.839844 192.789062 C 189.71875 192.914062 189.582031 193.023438 189.433594 193.113281 C 189.359375 193.230469 189.269531 193.335938 189.164062 193.429688 C 188.289062 194.070312 187.480469 194.78125 186.589844 195.355469 C 186.113281 195.671875 185.617188 195.949219 185.097656 196.1875 C 184.851562 196.347656 184.601562 196.496094 184.34375 196.625 C 184.265625 196.699219 184.175781 196.746094 184.074219 196.761719 C 183.34375 197.085938 182.59375 197.355469 181.824219 197.570312 C 181.597656 197.574219 181.390625 197.636719 181.203125 197.765625 C 181.011719 197.890625 180.875 198.058594 180.789062 198.269531 C 180.789062 198.394531 180.65625 198.460938 180.578125 198.585938 C 180.417969 198.820312 180.367188 199.074219 180.429688 199.351562 C 180.585938 200.796875 180.5 202.230469 180.171875 203.648438 C 180.082031 205.507812 179.855469 207.296875 179.621094 209.085938 C 179.621094 209.289062 179.476562 209.414062 179.542969 209.539062 C 179.699219 209.976562 179.671875 210.402344 179.464844 210.820312 C 179.464844 210.886719 179.53125 210.957031 179.597656 211.148438 C 180.015625 210.875 180.363281 210.753906 180.710938 210.5625 Z M 179.890625 215.0625 C 180.160156 216.1875 180.285156 217.316406 180.621094 218.441406 C 180.902344 219.207031 181.105469 219.984375 181.375 220.757812 C 181.484375 221.09375 181.527344 221.433594 181.507812 221.785156 C 181.578125 222.234375 181.507812 222.683594 181.78125 223 C 181.980469 223.265625 182.070312 223.566406 182.050781 223.898438 C 182.117188 224.160156 182.261719 224.351562 182.332031 224.609375 C 182.546875 225.253906 182.972656 225.710938 183.601562 225.972656 C 183.601562 226.039062 183.734375 226.039062 183.8125 226.039062 C 184.011719 226.097656 184.199219 226.074219 184.378906 225.976562 C 184.558594 225.878906 184.679688 225.730469 184.734375 225.53125 C 184.917969 224.878906 184.992188 224.214844 184.960938 223.539062 C 184.972656 223.320312 184.949219 223.109375 184.894531 222.898438 C 184.578125 221.578125 184.160156 220.292969 183.644531 219.039062 C 183.546875 218.8125 183.480469 218.582031 183.441406 218.339844 C 183.359375 218.027344 183.242188 217.726562 183.09375 217.4375 C 182.960938 217.179688 182.8125 216.855469 182.679688 216.59375 C 182.566406 216.363281 182.429688 216.148438 182.261719 215.953125 C 181.8125 215.421875 181.4375 214.839844 181.140625 214.207031 C 180.9375 213.632812 180.386719 213.308594 179.902344 212.914062 C 179.757812 213.609375 179.753906 214.308594 179.890625 215.007812 Z M 181.902344 196.164062 C 182.6875 195.867188 183.414062 195.464844 184.085938 194.960938 C 186.722656 193.257812 189.175781 191.3125 191.4375 189.128906 C 191.824219 188.753906 192.136719 188.324219 192.371094 187.835938 C 192.554688 187.472656 192.777344 187.128906 193.03125 186.8125 C 193.796875 185.890625 194.457031 184.902344 195.011719 183.839844 C 196.140625 181.921875 197.039062 179.898438 197.710938 177.773438 C 198.917969 174.828125 199.257812 171.785156 198.730469 168.644531 C 198.488281 166.894531 197.707031 165.433594 196.394531 164.253906 C 195.945312 163.871094 195.101562 163.949219 194.394531 163.703125 C 193.492188 163.457031 192.605469 164.828125 192.210938 165.515625 C 191.964844 165.964844 191.570312 166.347656 191.324219 166.867188 C 191.121094 167.191406 191.132812 167.699219 190.941406 167.992188 C 189.992188 169.6875 189.171875 171.441406 188.480469 173.257812 C 187.867188 174.625 187.382812 176.035156 187.03125 177.492188 C 186.585938 178.828125 186.054688 180.132812 185.433594 181.398438 C 184.085938 185.179688 183.589844 189.21875 182.058594 193.046875 C 181.875 193.296875 181.804688 193.574219 181.847656 193.878906 C 181.910156 194.234375 181.839844 194.554688 181.632812 194.847656 C 181.519531 195.046875 181.449219 195.261719 181.417969 195.488281 C 181.417969 195.738281 181.488281 195.996094 181.417969 196.324219 C 181.601562 196.316406 181.761719 196.253906 181.902344 196.144531 Z M 186.398438 223.515625 L 186.46875 223.585938 Z M 201.195312 167.035156 C 201.125 167.035156 201.125 166.96875 201.058594 166.96875 L 200.992188 166.96875 L 201.125 167.089844 C 201.105469 167.035156 201.105469 167.035156 201.195312 167.035156 Z M 201.195312 167.035156 " fill-opacity="1" fill-rule="nonzero"/><path fill="#391c10" d="M 203.925781 210.402344 C 204.550781 209.9375 205.234375 209.601562 205.984375 209.390625 C 207.003906 209.003906 207.933594 208.460938 208.769531 207.757812 C 209.675781 206.992188 210.621094 206.273438 211.605469 205.609375 C 212.117188 205.289062 212.585938 204.914062 213.007812 204.484375 C 213.605469 203.886719 214.132812 203.289062 214.730469 202.613281 C 215.011719 202.34375 215.273438 202.054688 215.515625 201.75 C 215.964844 201.152344 216.425781 200.621094 216.875 200.015625 C 217.71875 198.957031 218.550781 197.761719 219.382812 196.636719 C 219.46875 196.523438 219.511719 196.398438 219.511719 196.253906 C 219.511719 196.113281 219.46875 195.984375 219.382812 195.871094 C 219.859375 195.527344 220.390625 195.351562 220.980469 195.34375 C 220.914062 195.578125 220.789062 195.777344 220.609375 195.941406 C 220.375 196.246094 220.191406 196.574219 220.046875 196.929688 C 220.046875 197 219.992188 197.121094 219.992188 197.191406 C 220.03125 197.636719 219.890625 198.011719 219.5625 198.316406 C 219.316406 198.652344 219.058594 198.980469 218.796875 199.316406 C 218.539062 199.65625 218.011719 200.128906 217.675781 200.519531 C 217.546875 200.640625 217.445312 200.773438 217.359375 200.925781 C 217.289062 201.34375 217.097656 201.695312 216.785156 201.984375 C 216.351562 202.484375 215.867188 202.933594 215.335938 203.335938 C 214.75 203.78125 214.234375 204.292969 213.785156 204.878906 C 213.773438 204.980469 213.730469 205.070312 213.660156 205.148438 C 212.988281 205.550781 212.457031 206.148438 211.785156 206.566406 C 211.132812 206.957031 210.527344 207.40625 209.960938 207.917969 C 209.378906 208.527344 208.703125 209.015625 207.9375 209.378906 C 207.253906 209.730469 206.636719 210.066406 205.949219 210.503906 C 205.679688 210.640625 205.613281 210.773438 205.757812 211.023438 L 205.984375 211.40625 C 206.265625 211.777344 206.625 212.148438 206.917969 212.464844 C 207.691406 213.335938 208.328125 214.300781 208.828125 215.355469 C 208.953125 216.027344 209.113281 216.6875 209.3125 217.335938 C 210.03125 218.644531 210.476562 220.039062 210.648438 221.523438 C 210.59375 223.261719 210.066406 224.84375 209.0625 226.261719 C 208.648438 226.859375 208.085938 227.234375 207.378906 227.390625 C 207.097656 227.457031 206.816406 227.589844 206.457031 227.671875 C 206.046875 227.78125 205.636719 227.792969 205.222656 227.714844 C 204.808594 227.636719 204.433594 227.472656 204.09375 227.21875 C 203.753906 226.90625 203.4375 226.570312 203.140625 226.21875 C 202.847656 225.902344 202.632812 225.519531 202.328125 225.09375 C 201.648438 224.078125 201.039062 223.023438 200.496094 221.929688 C 200.441406 221.738281 200.34375 221.570312 200.203125 221.421875 C 199.921875 220.953125 199.773438 220.441406 199.753906 219.894531 C 199.675781 219.566406 199.597656 219.320312 199.53125 219.058594 C 199.132812 217.863281 198.808594 216.648438 198.550781 215.414062 C 198.550781 215.164062 198.550781 214.972656 198.550781 214.714844 C 198.542969 213.804688 198.4375 212.910156 198.226562 212.023438 C 198 210.898438 197.84375 209.660156 197.621094 208.5 C 197.621094 208.253906 197.539062 207.996094 197.539062 207.734375 C 197.390625 207.105469 197.3125 206.460938 197.304688 205.8125 C 197.28125 205.296875 197.226562 204.789062 197.136719 204.28125 L 197.136719 203.570312 C 197.199219 202.375 197.199219 201.179688 197.136719 199.980469 C 197.101562 199.640625 197.101562 199.296875 197.136719 198.957031 C 197.328125 198.21875 197.453125 197.46875 197.507812 196.707031 C 197.628906 195.578125 197.820312 194.523438 197.933594 193.429688 C 198.238281 191.4375 198.609375 189.445312 199.058594 187.386719 C 199.058594 186.933594 199.238281 186.484375 199.292969 185.96875 C 199.351562 185.246094 199.539062 184.558594 199.855469 183.90625 C 200.234375 183.066406 200.546875 182.203125 200.800781 181.320312 C 201.304688 179.640625 201.925781 178.019531 202.417969 176.34375 C 203.644531 172.703125 205.246094 169.238281 207.21875 165.941406 C 207.898438 164.945312 208.6875 164.039062 209.582031 163.230469 C 210.125 162.632812 210.761719 162.160156 211.496094 161.820312 C 212.230469 161.476562 213 161.292969 213.808594 161.261719 C 216.246094 160.96875 218.980469 160.5625 221.125 162.117188 C 222.945312 163.421875 223.632812 166.214844 223.496094 168.339844 C 223.375 169.636719 223.058594 170.875 222.867188 172.101562 L 222.699219 172.695312 C 222.539062 173.246094 222.441406 173.804688 222.40625 174.375 C 222.390625 174.5625 222.335938 174.738281 222.238281 174.902344 C 222.128906 175.484375 221.964844 176.050781 221.746094 176.601562 C 221.648438 176.917969 221.621094 177.242188 221.664062 177.570312 C 221.660156 177.726562 221.621094 177.878906 221.554688 178.019531 C 221.371094 178.777344 221.101562 179.5 220.742188 180.191406 C 220.441406 180.777344 220.214844 181.441406 219.910156 182.09375 C 219.453125 183.152344 218.878906 184.140625 218.191406 185.066406 C 217.945312 185.335938 217.765625 185.742188 217.507812 186 C 217.125 186.542969 216.886719 187.195312 216.515625 187.789062 C 216.300781 188.113281 216.070312 188.417969 215.820312 188.714844 C 215.167969 189.320312 214.59375 189.996094 213.941406 190.660156 C 213.492188 191.121094 212.976562 191.59375 212.457031 192.136719 C 212.339844 192.261719 212.207031 192.375 212.066406 192.472656 C 211.988281 192.589844 211.902344 192.699219 211.804688 192.800781 C 210.953125 193.476562 210.164062 194.207031 209.300781 194.816406 C 208.832031 195.144531 208.347656 195.441406 207.839844 195.703125 C 207.636719 195.839844 207.367188 196.03125 207.097656 196.175781 C 207.019531 196.25 206.929688 196.292969 206.828125 196.3125 C 206.097656 196.664062 205.351562 196.960938 204.578125 197.199219 C 204.097656 197.242188 203.761719 197.484375 203.578125 197.933594 C 203.578125 198.066406 203.441406 198.136719 203.375 198.257812 C 203.21875 198.5 203.179688 198.757812 203.261719 199.035156 C 203.464844 200.472656 203.433594 201.90625 203.160156 203.335938 C 203.160156 205.191406 202.96875 206.992188 202.800781 208.792969 C 202.800781 208.984375 202.667969 209.121094 202.800781 209.246094 C 202.984375 209.671875 202.984375 210.101562 202.800781 210.527344 C 202.800781 210.59375 202.878906 210.664062 202.949219 210.855469 C 203.238281 210.742188 203.578125 210.605469 203.925781 210.402344 Z M 203.261719 214.90625 C 203.566406 216.03125 203.734375 217.15625 204.117188 218.28125 C 204.421875 219.039062 204.65625 219.800781 204.960938 220.535156 C 205.078125 220.867188 205.132812 221.207031 205.128906 221.558594 C 205.207031 222.007812 205.128906 222.457031 205.445312 222.761719 C 205.648438 223.027344 205.75 223.328125 205.746094 223.664062 C 205.824219 223.910156 205.972656 224.101562 206.050781 224.351562 C 206.289062 224.988281 206.726562 225.425781 207.367188 225.667969 C 207.367188 225.734375 207.511719 225.722656 207.578125 225.722656 C 207.78125 225.777344 207.96875 225.75 208.148438 225.644531 C 208.328125 225.539062 208.441406 225.382812 208.488281 225.183594 C 208.648438 224.527344 208.703125 223.863281 208.648438 223.191406 C 208.648438 222.972656 208.613281 222.757812 208.546875 222.550781 C 208.1875 221.242188 207.726562 219.976562 207.164062 218.746094 C 207.054688 218.523438 206.976562 218.289062 206.925781 218.046875 C 206.835938 217.738281 206.710938 217.441406 206.554688 217.15625 C 206.410156 216.898438 206.253906 216.582031 206.105469 216.335938 C 205.984375 216.109375 205.839844 215.898438 205.667969 215.707031 C 205.21875 215.1875 204.84375 214.621094 204.542969 214.003906 C 204.332031 213.433594 203.757812 213.128906 203.261719 212.757812 C 203.113281 213.472656 203.113281 214.191406 203.261719 214.90625 Z M 204.566406 195.953125 C 205.339844 195.625 206.050781 195.195312 206.703125 194.667969 C 209.277344 192.867188 211.660156 190.832031 213.839844 188.566406 C 214.214844 188.183594 214.511719 187.742188 214.730469 187.25 C 214.898438 186.875 215.105469 186.523438 215.347656 186.191406 C 216.085938 185.25 216.707031 184.238281 217.214844 183.152344 C 218.285156 181.199219 219.113281 179.148438 219.699219 176.996094 C 220.792969 174.007812 221.023438 170.953125 220.382812 167.835938 C 220.074219 166.097656 219.242188 164.664062 217.886719 163.535156 C 217.417969 163.175781 216.585938 163.277344 215.863281 163.050781 C 214.953125 162.835938 214.121094 164.289062 213.761719 164.953125 C 213.515625 165.414062 213.144531 165.808594 212.90625 166.335938 C 212.726562 166.664062 212.75 167.171875 212.570312 167.460938 C 211.691406 169.191406 210.941406 170.972656 210.324219 172.808594 C 209.78125 174.195312 209.359375 175.617188 209.0625 177.074219 C 208.671875 178.429688 208.183594 179.75 207.601562 181.039062 C 206.398438 184.863281 206.050781 188.917969 204.667969 192.800781 C 204.503906 193.058594 204.445312 193.339844 204.488281 193.644531 C 204.570312 193.992188 204.507812 194.316406 204.308594 194.613281 C 204.210938 194.816406 204.148438 195.027344 204.128906 195.253906 C 204.128906 195.511719 204.207031 195.769531 204.21875 196.085938 C 204.347656 196.074219 204.460938 196.027344 204.566406 195.953125 Z M 210.1875 223.121094 L 210.253906 223.121094 Z M 222.777344 166.15625 C 222.777344 166.15625 222.710938 166.15625 222.65625 166.15625 L 222.554688 166.15625 L 222.6875 166.28125 C 222.722656 166.15625 222.722656 166.167969 222.777344 166.15625 Z M 222.777344 166.15625 " fill-opacity="1" fill-rule="nonzero"/><path fill="#391c10" d="M 243.777344 194.308594 C 243.75 194.507812 243.675781 194.6875 243.554688 194.847656 C 243.066406 195.542969 242.691406 196.292969 242.429688 197.097656 C 242.359375 197.171875 242.320312 197.257812 242.316406 197.359375 C 242.382812 198.125 241.8125 198.699219 241.664062 199.351562 C 241.28125 199.835938 241.136719 200.476562 240.765625 201.039062 C 238.910156 203.570312 238.113281 206.597656 235.402344 208.671875 C 233.367188 210.300781 231.277344 212.441406 228.332031 212.429688 C 227.277344 212.359375 226.238281 212.1875 225.21875 211.914062 C 225.152344 211.914062 225.082031 211.914062 224.9375 211.800781 C 224.0625 211.382812 223.285156 210.828125 222.609375 210.132812 C 221.671875 209.003906 221.136719 207.703125 221.011719 206.238281 C 220.835938 204.59375 220.796875 202.949219 220.890625 201.296875 C 220.96875 200.261719 221.058594 199.171875 221.070312 198.144531 C 221.070312 197.902344 221.105469 197.660156 221.171875 197.425781 C 221.382812 196.390625 221.53125 195.355469 221.675781 194.25 C 221.984375 192.917969 222.382812 191.609375 222.878906 190.335938 C 222.945312 190.148438 223.027344 189.972656 223.125 189.804688 C 223.460938 189.414062 223.703125 188.96875 223.859375 188.476562 C 223.859375 188.410156 223.859375 188.34375 223.859375 188.285156 C 224.144531 187.335938 224.65625 186.535156 225.398438 185.878906 C 225.527344 185.738281 225.679688 185.621094 225.847656 185.527344 C 226.917969 184.855469 228.070312 184.375 229.296875 184.078125 C 229.988281 183.839844 230.695312 183.730469 231.421875 183.738281 C 231.796875 183.710938 232.171875 183.710938 232.546875 183.738281 C 232.683594 183.738281 232.816406 183.738281 232.953125 183.738281 C 237.292969 183.546875 235.964844 191.234375 233.773438 193.070312 C 233.414062 193.277344 233.09375 193.535156 232.816406 193.847656 C 232.75 193.984375 232.640625 194.058594 232.492188 194.070312 C 232.160156 194.304688 231.808594 194.5 231.433594 194.65625 C 230.703125 194.996094 229.957031 195.285156 229.1875 195.523438 C 227.984375 195.792969 228.0625 195.726562 227.835938 196.648438 C 227.777344 196.925781 227.746094 197.207031 227.746094 197.492188 C 228.039062 200.757812 226.351562 206.070312 228.679688 208.75 C 229.074219 209.191406 229.554688 209.480469 230.128906 209.617188 C 230.429688 209.757812 230.730469 209.757812 231.03125 209.617188 C 231.664062 209.394531 232.25 209.078125 232.785156 208.671875 C 233.582031 208.097656 234.300781 207.542969 235.03125 206.960938 C 235.34375 206.691406 235.625 206.390625 235.875 206.058594 C 236.660156 205.023438 237.332031 203.921875 237.898438 202.75 C 238.027344 202.515625 238.175781 202.289062 238.335938 202.074219 C 239.234375 200.75 240.039062 199.375 240.753906 197.945312 C 240.871094 197.753906 240.96875 197.554688 241.046875 197.347656 C 241.445312 196.300781 241.949219 195.3125 242.5625 194.375 C 242.667969 194.023438 242.90625 193.832031 243.273438 193.800781 C 243.410156 194 243.578125 194.171875 243.777344 194.308594 Z M 233.796875 186.125 C 233.785156 185.976562 233.710938 185.875 233.570312 185.820312 C 233.242188 185.507812 232.863281 185.289062 232.425781 185.160156 C 231.992188 185.035156 231.554688 185.011719 231.109375 185.101562 C 230.761719 185.152344 230.457031 185.289062 230.195312 185.519531 C 229.929688 185.746094 229.75 186.027344 229.648438 186.363281 C 229.339844 187.082031 229.144531 187.832031 229.0625 188.613281 C 229.070312 188.847656 229.011719 189.0625 228.894531 189.265625 C 228.667969 190 228.535156 190.75 228.5 191.515625 C 228.5 192.066406 228.425781 192.609375 228.277344 193.136719 C 228.097656 193.503906 228.074219 193.878906 228.207031 194.261719 C 229.308594 194.082031 230.347656 193.734375 231.332031 193.214844 C 231.96875 192.894531 232.480469 192.433594 232.863281 191.832031 C 233.414062 191.011719 233.828125 190.210938 234.300781 189.34375 C 234.359375 189.210938 234.480469 189.007812 234.300781 188.828125 C 234.222656 188.515625 234.242188 188.210938 234.367188 187.914062 L 234.515625 187.261719 C 234.203125 186.929688 233.964844 186.550781 233.796875 186.125 Z M 233.796875 186.125 " fill-opacity="1" fill-rule="nonzero"/><path fill="#391c10" d="M 266.183594 191.886719 C 266.167969 192.085938 266.101562 192.265625 265.980469 192.429688 C 265.535156 193.128906 265.195312 193.882812 264.957031 194.679688 C 264.890625 194.757812 264.859375 194.847656 264.855469 194.949219 C 264.945312 195.714844 264.394531 196.300781 264.273438 196.964844 C 263.914062 197.460938 263.789062 198.089844 263.441406 198.6875 C 261.675781 201.285156 260.976562 204.316406 258.347656 206.5 C 256.367188 208.210938 254.355469 210.425781 251.410156 210.527344 C 250.355469 210.488281 249.316406 210.351562 248.285156 210.121094 C 248.183594 210.097656 248.085938 210.066406 247.992188 210.019531 C 247.105469 209.632812 246.304688 209.101562 245.597656 208.433594 C 244.621094 207.335938 244.042969 206.058594 243.867188 204.597656 C 243.632812 202.960938 243.53125 201.316406 243.566406 199.664062 C 243.566406 198.628906 243.65625 197.527344 243.632812 196.503906 C 243.625 196.265625 243.648438 196.027344 243.699219 195.792969 C 243.890625 194.746094 243.992188 193.699219 244.105469 192.597656 C 244.375 191.246094 244.746094 189.925781 245.226562 188.636719 C 245.28125 188.449219 245.355469 188.269531 245.441406 188.09375 C 245.769531 187.695312 245.996094 187.242188 246.128906 186.742188 C 246.128906 186.6875 246.183594 186.609375 246.128906 186.550781 C 246.382812 185.597656 246.867188 184.777344 247.578125 184.085938 C 247.707031 183.945312 247.851562 183.828125 248.015625 183.726562 C 249.058594 183.027344 250.183594 182.5 251.390625 182.152344 C 252.070312 181.890625 252.773438 181.75 253.503906 181.734375 C 253.878906 181.695312 254.25 181.695312 254.625 181.734375 C 254.761719 181.734375 254.90625 181.734375 255.03125 181.734375 C 259.371094 181.386719 258.3125 189.117188 256.15625 191.03125 C 255.789062 191.242188 255.476562 191.515625 255.210938 191.84375 C 255.148438 191.980469 255.046875 192.058594 254.894531 192.078125 C 254.578125 192.324219 254.238281 192.53125 253.875 192.699219 C 253.148438 193.066406 252.398438 193.382812 251.625 193.644531 C 250.433594 193.960938 250.5 193.890625 250.320312 194.871094 C 250.269531 195.148438 250.253906 195.429688 250.265625 195.714844 C 250.667969 198.96875 249.140625 204.335938 251.589844 206.972656 C 252.003906 207.394531 252.5 207.667969 253.074219 207.792969 C 253.378906 207.925781 253.683594 207.925781 253.984375 207.792969 C 254.605469 207.542969 255.175781 207.203125 255.695312 206.78125 C 256.46875 206.171875 257.179688 205.585938 257.875 204.988281 C 258.179688 204.710938 258.449219 204.398438 258.683594 204.054688 C 259.429688 202.992188 260.066406 201.867188 260.597656 200.679688 C 260.714844 200.4375 260.847656 200.203125 261 199.980469 C 261.847656 198.628906 262.597656 197.226562 263.25 195.769531 C 263.367188 195.582031 263.457031 195.378906 263.519531 195.164062 C 263.882812 194.105469 264.355469 193.101562 264.933594 192.148438 C 265.027344 191.792969 265.25 191.59375 265.609375 191.539062 C 265.78125 191.6875 265.972656 191.804688 266.183594 191.886719 Z M 255.863281 184.078125 C 255.851562 183.921875 255.773438 183.820312 255.628906 183.773438 C 255.285156 183.472656 254.894531 183.265625 254.457031 183.152344 C 254.015625 183.042969 253.574219 183.039062 253.132812 183.140625 C 252.789062 183.210938 252.492188 183.363281 252.238281 183.601562 C 251.980469 183.835938 251.808594 184.125 251.714844 184.460938 C 251.441406 185.1875 251.273438 185.9375 251.207031 186.710938 C 251.230469 186.941406 251.1875 187.160156 251.074219 187.363281 C 250.875 188.101562 250.769531 188.851562 250.757812 189.613281 C 250.777344 190.167969 250.722656 190.710938 250.589844 191.246094 C 250.441406 191.621094 250.441406 191.996094 250.589844 192.371094 C 251.683594 192.164062 252.710938 191.789062 253.683594 191.246094 C 254.308594 190.898438 254.804688 190.414062 255.167969 189.792969 C 255.683594 188.960938 256.078125 188.140625 256.515625 187.25 C 256.515625 187.117188 256.683594 186.914062 256.515625 186.734375 C 256.417969 186.433594 256.417969 186.132812 256.515625 185.832031 C 256.515625 185.628906 256.605469 185.371094 256.648438 185.167969 C 256.316406 184.855469 256.054688 184.492188 255.863281 184.078125 Z M 255.863281 184.078125 " fill-opacity="1" fill-rule="nonzero"/><path fill="#845729" d="M 111.460938 257.710938 C 111.644531 257.632812 111.773438 257.5 111.847656 257.3125 C 111.921875 257.125 111.914062 256.9375 111.832031 256.753906 C 108.335938 249.347656 97.351562 247.1875 87.316406 251.9375 C 78.78125 255.96875 73.667969 263.679688 74.441406 270.441406 C 74.476562 270.75 74.640625 270.960938 74.929688 271.074219 C 75.222656 271.183594 75.480469 271.132812 75.714844 270.925781 C 87.921875 260.144531 101.140625 262 111.460938 257.710938 Z M 111.460938 257.710938 " fill-opacity="1" fill-rule="nonzero"/><path fill="#845729" d="M 75.542969 273.539062 C 75.390625 273.648438 75.355469 273.785156 75.441406 273.953125 C 78.9375 281.417969 89.898438 283.511719 100.019531 278.761719 C 109.011719 274.484375 114.273438 266.0625 112.664062 259.019531 C 112.644531 258.925781 112.605469 258.84375 112.546875 258.773438 C 112.488281 258.699219 112.414062 258.644531 112.328125 258.605469 C 112.242188 258.566406 112.152344 258.550781 112.0625 258.558594 C 111.96875 258.5625 111.878906 258.589844 111.800781 258.636719 C 101.402344 264.195312 83.355469 267.773438 75.542969 273.539062 Z M 75.542969 273.539062 " fill-opacity="1" fill-rule="nonzero"/><path fill="#391c10" d="M 187.929688 326 C 188.058594 326.167969 188.226562 326.261719 188.433594 326.28125 C 188.644531 326.300781 188.828125 326.242188 188.984375 326.101562 C 195.394531 320.476562 194.414062 308.871094 186.804688 300.148438 C 180.339844 292.761719 171.179688 289.824219 164.636719 292.539062 C 164.332031 292.65625 164.167969 292.878906 164.136719 293.203125 C 164.109375 293.527344 164.234375 293.773438 164.511719 293.945312 C 178.777344 303.105469 180.699219 316.929688 187.929688 326 Z M 187.929688 326 " fill-opacity="1" fill-rule="nonzero"/><path fill="#391c10" d="M 161.847656 294.53125 C 161.695312 294.402344 161.539062 294.402344 161.386719 294.53125 C 154.980469 300.160156 155.957031 311.761719 163.566406 320.476562 C 170.4375 328.355469 180.328125 331.144531 186.917969 327.519531 C 187 327.472656 187.070312 327.410156 187.125 327.328125 C 187.179688 327.25 187.214844 327.164062 187.226562 327.066406 C 187.242188 326.972656 187.234375 326.878906 187.207031 326.785156 C 187.175781 326.695312 187.128906 326.613281 187.0625 326.542969 C 178.574219 317.785156 169.839844 300.710938 161.847656 294.53125 Z M 161.847656 294.53125 " fill-opacity="1" fill-rule="nonzero"/><path fill="#845729" d="M 223.554688 292.671875 C 223.332031 292.6875 223.113281 292.722656 222.898438 292.78125 C 222.683594 292.84375 222.476562 292.921875 222.277344 293.027344 C 222.082031 293.128906 221.898438 293.25 221.722656 293.394531 C 221.550781 293.535156 221.398438 293.695312 221.257812 293.867188 C 221.121094 294.042969 221 294.230469 220.902344 294.429688 C 220.800781 294.628906 220.722656 294.835938 220.667969 295.054688 C 220.613281 295.269531 220.578125 295.488281 220.570312 295.710938 C 220.558594 295.933594 220.570312 296.15625 220.609375 296.375 C 220.789062 297.417969 221.0625 298.433594 221.429688 299.425781 C 225.710938 311.414062 242.363281 316.410156 258.605469 310.582031 C 269.164062 306.800781 276.964844 299.324219 279.964844 291.34375 C 280.070312 291.054688 280.089844 290.761719 280.019531 290.460938 C 279.949219 290.160156 279.800781 289.902344 279.578125 289.691406 C 279.355469 289.480469 279.089844 289.347656 278.789062 289.292969 C 278.484375 289.242188 278.191406 289.273438 277.910156 289.398438 C 257.101562 298.300781 239.507812 291.714844 223.554688 292.671875 Z M 223.554688 292.671875 " fill-opacity="1" fill-rule="nonzero"/><path fill="#845729" d="M 276.90625 285.917969 C 277.238281 285.839844 277.558594 285.730469 277.867188 285.585938 C 278.175781 285.445312 278.46875 285.273438 278.742188 285.070312 C 279.019531 284.867188 279.269531 284.640625 279.496094 284.386719 C 279.726562 284.136719 279.929688 283.863281 280.101562 283.570312 C 280.277344 283.277344 280.417969 282.96875 280.53125 282.648438 C 280.644531 282.328125 280.722656 281.996094 280.769531 281.660156 C 280.816406 281.320312 280.828125 280.984375 280.804688 280.640625 C 280.785156 280.300781 280.730469 279.96875 280.640625 279.640625 C 280.515625 279.210938 280.382812 278.773438 280.234375 278.34375 C 275.953125 266.367188 259.304688 261.371094 243.058594 267.191406 C 232.210938 271.085938 224.296875 278.792969 221.484375 287.066406 C 221.410156 287.296875 221.363281 287.53125 221.347656 287.769531 C 221.332031 288.011719 221.347656 288.25 221.394531 288.484375 C 221.441406 288.722656 221.515625 288.945312 221.621094 289.164062 C 221.726562 289.378906 221.855469 289.582031 222.011719 289.761719 C 222.167969 289.945312 222.34375 290.105469 222.542969 290.242188 C 222.738281 290.378906 222.949219 290.488281 223.175781 290.574219 C 223.402344 290.65625 223.632812 290.707031 223.875 290.730469 C 224.113281 290.75 224.351562 290.742188 224.589844 290.703125 C 240.609375 288.101562 262.957031 289.230469 276.90625 285.917969 Z M 276.90625 285.917969 " fill-opacity="1" fill-rule="nonzero"/><path fill="#3b2314" d="M 273.726562 243.84375 C 273.492188 243.78125 273.253906 243.769531 273.011719 243.804688 C 272.773438 243.839844 272.550781 243.925781 272.34375 244.054688 C 272.140625 244.1875 271.96875 244.351562 271.832031 244.554688 C 271.699219 244.757812 271.609375 244.976562 271.566406 245.21875 C 271.460938 245.78125 271.414062 246.347656 271.421875 246.917969 C 271.421875 253.796875 279.054688 259.300781 288.398438 259.300781 C 294.46875 259.300781 299.773438 256.867188 302.742188 253.3125 C 302.976562 253.027344 303.007812 252.722656 302.839844 252.394531 C 302.667969 252.066406 302.398438 251.917969 302.03125 251.949219 C 289.847656 252.75 282.046875 246.21875 273.726562 243.84375 Z M 273.726562 243.84375 " fill-opacity="1" fill-rule="nonzero"/><path fill="#3b2314" d="M 302.179688 249.992188 C 302.550781 250.03125 302.910156 249.996094 303.265625 249.886719 C 303.621094 249.777344 303.941406 249.605469 304.226562 249.367188 C 304.511719 249.128906 304.738281 248.84375 304.910156 248.511719 C 305.078125 248.179688 305.175781 247.828125 305.203125 247.457031 C 305.203125 247.210938 305.203125 246.964844 305.203125 246.714844 C 305.203125 239.828125 297.558594 234.332031 288.21875 234.332031 C 281.988281 234.332031 276.558594 236.890625 273.601562 240.601562 C 273.523438 240.707031 273.457031 240.816406 273.402344 240.9375 C 273.351562 241.058594 273.316406 241.183594 273.296875 241.3125 C 273.277344 241.441406 273.273438 241.570312 273.289062 241.703125 C 273.304688 241.832031 273.335938 241.957031 273.382812 242.078125 C 273.429688 242.203125 273.488281 242.316406 273.566406 242.421875 C 273.644531 242.527344 273.730469 242.621094 273.832031 242.703125 C 273.933594 242.789062 274.042969 242.855469 274.164062 242.910156 C 274.28125 242.964844 274.40625 243 274.535156 243.023438 C 283.257812 244.566406 294.5 249.15625 302.179688 249.992188 Z M 302.179688 249.992188 " fill-opacity="1" fill-rule="nonzero"/><path fill="#845729" d="M 131.40625 286.382812 C 131.472656 286.242188 131.507812 286.097656 131.511719 285.945312 C 131.519531 285.789062 131.496094 285.640625 131.441406 285.5 C 131.386719 285.355469 131.308594 285.226562 131.203125 285.117188 C 131.097656 285.007812 130.972656 284.921875 130.832031 284.863281 C 130.496094 284.726562 130.152344 284.621094 129.796875 284.546875 C 125.535156 283.703125 121.128906 287.710938 119.972656 293.550781 C 119.578125 295.222656 119.546875 296.898438 119.875 298.582031 C 120.203125 300.265625 120.859375 301.808594 121.847656 303.207031 C 121.996094 303.382812 122.183594 303.441406 122.402344 303.382812 C 122.625 303.320312 122.753906 303.175781 122.792969 302.949219 C 123.839844 295.25 128.875 291.242188 131.40625 286.382812 Z M 131.40625 286.382812 " fill-opacity="1" fill-rule="nonzero"/><path fill="#845729" d="M 123.972656 303.253906 C 123.894531 303.476562 123.863281 303.707031 123.875 303.945312 C 123.890625 304.183594 123.949219 304.40625 124.058594 304.617188 C 124.164062 304.832031 124.304688 305.015625 124.488281 305.167969 C 124.667969 305.320312 124.871094 305.433594 125.097656 305.503906 C 125.253906 305.503906 125.402344 305.582031 125.558594 305.605469 C 129.820312 306.460938 134.226562 302.453125 135.375 296.601562 C 135.785156 294.894531 135.816406 293.175781 135.460938 291.457031 C 135.105469 289.734375 134.402344 288.171875 133.351562 286.765625 C 133.242188 286.636719 133.109375 286.542969 132.953125 286.484375 C 132.796875 286.425781 132.632812 286.410156 132.46875 286.4375 C 132.304688 286.464844 132.15625 286.53125 132.027344 286.640625 C 131.894531 286.746094 131.800781 286.875 131.742188 287.035156 C 129.742188 292.199219 125.46875 298.570312 123.972656 303.253906 Z M 123.972656 303.253906 " fill-opacity="1" fill-rule="nonzero"/><path fill="#391c10" d="M 51.960938 215.222656 C 51.804688 215.257812 51.691406 215.34375 51.609375 215.476562 C 51.53125 215.613281 51.511719 215.757812 51.554688 215.90625 C 53.320312 222.03125 61.480469 225.035156 69.777344 222.660156 C 76.816406 220.625 81.683594 215.34375 81.929688 210.054688 C 81.9375 209.816406 81.839844 209.636719 81.632812 209.515625 C 81.425781 209.394531 81.222656 209.398438 81.019531 209.527344 C 70.316406 216.257812 60.367188 213.195312 51.960938 215.222656 Z M 51.960938 215.222656 " fill-opacity="1" fill-rule="nonzero"/><path fill="#391c10" d="M 81.46875 207.523438 C 81.609375 207.460938 81.648438 207.359375 81.59375 207.21875 C 79.828125 201.09375 71.675781 198.078125 63.378906 200.464844 C 55.90625 202.625 50.867188 208.46875 51.226562 214.0625 C 51.238281 214.214844 51.308594 214.335938 51.4375 214.421875 C 51.5625 214.507812 51.699219 214.527344 51.847656 214.476562 C 60.46875 211.484375 74.757812 210.964844 81.46875 207.523438 Z M 81.46875 207.523438 " fill-opacity="1" fill-rule="nonzero"/><path fill="#5d382c" d="M 198.25 321.261719 C 198.128906 321.289062 198.035156 321.359375 197.972656 321.464844 C 197.90625 321.570312 197.890625 321.683594 197.921875 321.804688 C 199.316406 326.632812 205.792969 329.019531 212.3125 327.117188 C 217.867188 325.519531 221.710938 321.34375 221.902344 317.175781 C 221.910156 316.988281 221.835938 316.84375 221.671875 316.746094 C 221.507812 316.648438 221.34375 316.648438 221.183594 316.75 C 212.738281 322.085938 204.894531 319.6875 198.25 321.261719 Z M 198.25 321.261719 " fill-opacity="1" fill-rule="nonzero"/><path fill="#5d382c" d="M 221.542969 315.183594 C 221.640625 315.132812 221.675781 315.054688 221.644531 314.949219 C 220.25 310.121094 213.773438 307.734375 207.265625 309.636719 C 201.363281 311.335938 197.394531 315.925781 197.675781 320.351562 C 197.683594 320.472656 197.738281 320.566406 197.839844 320.632812 C 197.9375 320.699219 198.042969 320.714844 198.160156 320.675781 C 204.972656 318.3125 216.246094 317.910156 221.542969 315.183594 Z M 221.542969 315.183594 " fill-opacity="1" fill-rule="nonzero"/><path fill="#5d382c" d="M 89.484375 216.449219 C 89.503906 216.304688 89.46875 216.179688 89.382812 216.066406 C 89.292969 215.953125 89.175781 215.890625 89.035156 215.875 C 83.246094 215.390625 78.015625 221.378906 77.355469 229.257812 C 76.804688 235.933594 79.714844 241.820312 84.097656 243.742188 C 84.300781 243.835938 84.492188 243.8125 84.664062 243.675781 C 84.839844 243.535156 84.902344 243.355469 84.851562 243.136719 C 82.617188 231.800781 88.472656 224.292969 89.484375 216.449219 Z M 89.484375 216.449219 " fill-opacity="1" fill-rule="nonzero"/><path fill="#5d382c" d="M 86.4375 244.160156 C 86.449219 244.296875 86.523438 244.375 86.664062 244.386719 C 92.453125 244.859375 97.667969 238.871094 98.332031 231.003906 C 98.917969 223.910156 95.601562 217.71875 90.710938 216.199219 C 90.574219 216.160156 90.453125 216.179688 90.335938 216.261719 C 90.222656 216.34375 90.164062 216.453125 90.160156 216.59375 C 89.898438 224.933594 85.683594 237.316406 86.4375 244.160156 Z M 86.4375 244.160156 " fill-opacity="1" fill-rule="nonzero"/><path fill="#5d382c" d="M 137.992188 276.914062 C 137.910156 276.832031 137.8125 276.789062 137.695312 276.789062 C 137.578125 276.789062 137.476562 276.832031 137.398438 276.914062 C 134.238281 280.4375 135.542969 286.765625 140.308594 291.0625 C 144.355469 294.699219 149.59375 295.699219 153.023438 293.777344 C 153.179688 293.695312 153.257812 293.5625 153.257812 293.386719 C 153.257812 293.210938 153.179688 293.082031 153.023438 293 C 144.546875 288.878906 142.566406 281.417969 137.992188 276.914062 Z M 137.992188 276.914062 " fill-opacity="1" fill-rule="nonzero"/><path fill="#5d382c" d="M 154.417969 292.480469 C 154.5 292.550781 154.582031 292.550781 154.664062 292.480469 C 157.824219 288.96875 156.519531 282.632812 151.753906 278.34375 C 147.457031 274.484375 141.816406 273.582031 138.429688 276.015625 C 138.339844 276.085938 138.296875 276.175781 138.296875 276.289062 C 138.296875 276.402344 138.339844 276.496094 138.429688 276.566406 C 143.679688 280.785156 149.617188 289.601562 154.417969 292.480469 Z M 154.417969 292.480469 " fill-opacity="1" fill-rule="nonzero"/><path fill="#845729" d="M 71.25 179.675781 C 71.355469 179.632812 71.429688 179.5625 71.46875 179.457031 C 71.511719 179.351562 71.511719 179.25 71.464844 179.144531 C 69.519531 175.027344 63.414062 173.832031 57.828125 176.46875 C 53.09375 178.71875 50.25 182.996094 50.6875 186.753906 C 50.703125 186.929688 50.792969 187.046875 50.953125 187.109375 C 51.113281 187.171875 51.257812 187.144531 51.386719 187.027344 C 58.175781 181.027344 65.539062 182.0625 71.25 179.675781 Z M 71.25 179.675781 " fill-opacity="1" fill-rule="nonzero"/><path fill="#845729" d="M 51.296875 188.464844 C 51.207031 188.523438 51.1875 188.597656 51.238281 188.691406 C 53.171875 192.8125 59.277344 194.015625 64.863281 191.371094 C 69.890625 188.996094 72.789062 184.3125 71.890625 180.40625 C 71.871094 180.300781 71.808594 180.222656 71.710938 180.175781 C 71.613281 180.128906 71.515625 180.128906 71.417969 180.183594 C 65.664062 183.277344 55.636719 185.269531 51.296875 188.464844 Z M 51.296875 188.464844 " fill-opacity="1" fill-rule="nonzero"/><path fill="#391c10" d="M 78.570312 169.015625 C 78.648438 169.097656 78.746094 169.140625 78.859375 169.140625 C 78.976562 169.140625 79.074219 169.097656 79.152344 169.015625 C 82.714844 165.886719 82.164062 159.4375 77.9375 154.597656 C 74.351562 150.488281 69.261719 148.855469 65.574219 150.363281 C 65.410156 150.433594 65.320312 150.554688 65.304688 150.734375 C 65.289062 150.910156 65.355469 151.046875 65.503906 151.140625 C 73.488281 156.285156 74.554688 163.972656 78.570312 169.015625 Z M 78.570312 169.015625 " fill-opacity="1" fill-rule="nonzero"/><path fill="#391c10" d="M 64.042969 151.523438 C 63.957031 151.464844 63.871094 151.464844 63.785156 151.523438 C 60.222656 154.652344 60.773438 161.101562 65 165.953125 C 68.808594 170.308594 74.320312 171.875 77.972656 169.871094 C 78.074219 169.816406 78.136719 169.734375 78.15625 169.617188 C 78.175781 169.503906 78.144531 169.402344 78.0625 169.320312 C 73.375 164.445312 68.539062 154.957031 64.042969 151.523438 Z M 64.042969 151.523438 " fill-opacity="1" fill-rule="nonzero"/><path fill="#391c10" d="M 133.101562 264.015625 C 133.179688 264.011719 133.246094 263.980469 133.296875 263.921875 C 133.34375 263.859375 133.363281 263.789062 133.351562 263.710938 C 132.910156 260.546875 129.089844 258.464844 124.804688 259.0625 C 121.175781 259.570312 118.375 261.832031 117.882812 264.441406 C 117.855469 264.5625 117.886719 264.664062 117.984375 264.738281 C 118.082031 264.816406 118.1875 264.824219 118.296875 264.769531 C 124.074219 262.191406 128.785156 264.421875 133.101562 264.015625 Z M 133.101562 264.015625 " fill-opacity="1" fill-rule="nonzero"/><path fill="#391c10" d="M 117.9375 265.714844 C 117.859375 265.734375 117.832031 265.785156 117.847656 265.863281 C 118.285156 269.011719 122.109375 271.09375 126.390625 270.5 C 130.246094 269.96875 133.136719 267.449219 133.371094 264.644531 C 133.382812 264.570312 133.359375 264.503906 133.300781 264.453125 C 133.242188 264.402344 133.179688 264.382812 133.101562 264.398438 C 128.617188 265.265625 121.5 264.535156 117.9375 265.714844 Z M 117.9375 265.714844 " fill-opacity="1" fill-rule="nonzero"/><path fill="#391c10" d="M 319.625 234.140625 C 319.6875 234.089844 319.71875 234.023438 319.71875 233.945312 C 319.71875 233.867188 319.6875 233.800781 319.625 233.75 C 317.378906 231.496094 313.082031 232.128906 310.015625 235.1875 C 307.417969 237.777344 306.550781 241.265625 307.710938 243.640625 C 307.761719 243.753906 307.851562 243.808594 307.972656 243.808594 C 308.097656 243.808594 308.1875 243.753906 308.238281 243.640625 C 311.363281 238.148438 316.421875 237.089844 319.625 234.140625 Z M 319.625 234.140625 " fill-opacity="1" fill-rule="nonzero"/><path fill="#391c10" d="M 308.53125 244.667969 C 308.484375 244.722656 308.484375 244.78125 308.53125 244.835938 C 310.78125 247.085938 315.074219 246.457031 318.144531 243.394531 C 320.898438 240.648438 321.707031 236.878906 320.199219 234.515625 C 320.15625 234.453125 320.09375 234.425781 320.019531 234.425781 C 319.945312 234.425781 319.886719 234.453125 319.839844 234.515625 C 316.792969 237.867188 310.644531 241.539062 308.53125 244.667969 Z M 308.53125 244.667969 " fill-opacity="1" fill-rule="nonzero"/><path fill="#391c10" d="M 66.585938 252.410156 C 66.554688 252.511719 66.570312 252.609375 66.621094 252.699219 C 66.675781 252.789062 66.753906 252.847656 66.855469 252.871094 C 71.046875 253.875 75.542969 250.082031 76.90625 244.386719 C 78.027344 239.554688 76.578125 234.917969 73.53125 233.015625 C 73.394531 232.929688 73.253906 232.929688 73.113281 233.011719 C 72.972656 233.09375 72.90625 233.214844 72.914062 233.378906 C 73.328125 241.929688 68.203125 246.773438 66.585938 252.410156 Z M 66.585938 252.410156 " fill-opacity="1" fill-rule="nonzero"/><path fill="#391c10" d="M 71.914062 232.441406 C 71.910156 232.34375 71.863281 232.285156 71.765625 232.261719 C 67.585938 231.261719 63.089844 235.066406 61.726562 240.75 C 60.503906 245.882812 62.246094 250.789062 65.652344 252.445312 C 65.746094 252.492188 65.839844 252.492188 65.933594 252.445312 C 66.027344 252.398438 66.082031 252.324219 66.101562 252.21875 C 67.238281 246.140625 71.710938 237.519531 71.914062 232.441406 Z M 71.914062 232.441406 " fill-opacity="1" fill-rule="nonzero"/><path fill="#391c10" d="M 137.566406 315.984375 C 137.488281 316.058594 137.449219 316.148438 137.449219 316.253906 C 137.449219 316.359375 137.488281 316.449219 137.566406 316.523438 C 140.65625 319.621094 146.558594 318.777344 150.773438 314.519531 C 154.347656 310.953125 155.53125 306.144531 153.921875 302.882812 C 153.84375 302.738281 153.722656 302.664062 153.558594 302.664062 C 153.390625 302.664062 153.269531 302.738281 153.191406 302.882812 C 148.976562 310.503906 141.972656 311.964844 137.566406 315.984375 Z M 137.566406 315.984375 " fill-opacity="1" fill-rule="nonzero"/><path fill="#391c10" d="M 152.855469 301.53125 C 152.921875 301.457031 152.921875 301.382812 152.855469 301.304688 C 149.761719 298.199219 143.859375 299.054688 139.644531 303.296875 C 135.855469 307.09375 134.753906 312.304688 136.835938 315.523438 C 136.898438 315.609375 136.980469 315.648438 137.085938 315.648438 C 137.195312 315.648438 137.277344 315.609375 137.339844 315.523438 C 141.457031 310.894531 149.898438 305.832031 152.855469 301.53125 Z M 152.855469 301.53125 " fill-opacity="1" fill-rule="nonzero"/><path fill="#391c10" d="M 98.164062 299.113281 C 98.078125 299.175781 98.027344 299.261719 98.015625 299.371094 C 98.007812 299.476562 98.035156 299.570312 98.105469 299.652344 C 100.929688 303.027344 106.898438 302.601562 111.441406 298.75 C 115.285156 295.488281 116.871094 290.804688 115.53125 287.417969 C 115.472656 287.261719 115.363281 287.171875 115.195312 287.15625 C 115.03125 287.136719 114.902344 287.199219 114.8125 287.335938 C 109.988281 294.597656 102.882812 295.464844 98.164062 299.113281 Z M 98.164062 299.113281 " fill-opacity="1" fill-rule="nonzero"/><path fill="#391c10" d="M 114.53125 285.917969 C 114.597656 285.84375 114.597656 285.769531 114.53125 285.695312 C 111.710938 282.316406 105.738281 282.746094 101.199219 286.59375 C 97.117188 290.050781 95.578125 295.125 97.386719 298.539062 C 97.4375 298.632812 97.515625 298.6875 97.617188 298.707031 C 97.722656 298.722656 97.8125 298.699219 97.894531 298.628906 C 102.46875 294.363281 111.257812 290.015625 114.53125 285.917969 Z M 114.53125 285.917969 " fill-opacity="1" fill-rule="nonzero"/><path fill="#391c10" d="M 78.660156 197.269531 C 78.644531 197.355469 78.664062 197.433594 78.71875 197.5 C 78.773438 197.570312 78.839844 197.609375 78.929688 197.617188 C 82.445312 197.953125 85.671875 194.351562 86.121094 189.570312 C 86.515625 185.507812 84.785156 181.902344 82.097656 180.699219 C 81.976562 180.640625 81.863281 180.652344 81.757812 180.734375 C 81.648438 180.820312 81.609375 180.925781 81.636719 181.058594 C 82.953125 187.992188 79.332031 192.496094 78.660156 197.269531 Z M 78.660156 197.269531 " fill-opacity="1" fill-rule="nonzero"/><path fill="#391c10" d="M 80.714844 180.429688 C 80.714844 180.347656 80.675781 180.300781 80.59375 180.292969 C 77.074219 179.957031 73.847656 183.558594 73.386719 188.355469 C 72.980469 192.652344 74.949219 196.457031 77.882812 197.414062 C 77.964844 197.441406 78.039062 197.429688 78.109375 197.378906 C 78.179688 197.332031 78.214844 197.265625 78.21875 197.179688 C 78.476562 192.101562 81.132812 184.617188 80.714844 180.429688 Z M 80.714844 180.429688 " fill-opacity="1" fill-rule="nonzero"/><path fill="#5d382c" d="M 282.988281 274.347656 C 282.878906 274.386719 282.800781 274.460938 282.753906 274.566406 C 282.707031 274.675781 282.707031 274.78125 282.753906 274.890625 C 284.585938 279.1875 290.800781 280.652344 296.625 278.164062 C 301.570312 276.046875 304.652344 271.757812 304.347656 267.886719 C 304.339844 267.707031 304.253906 267.582031 304.089844 267.511719 C 303.925781 267.441406 303.777344 267.464844 303.640625 267.582031 C 296.457031 273.460938 288.9375 272.121094 282.988281 274.347656 Z M 282.988281 274.347656 " fill-opacity="1" fill-rule="nonzero"/><path fill="#5d382c" d="M 303.796875 266.097656 C 303.875 266.035156 303.898438 265.957031 303.867188 265.863281 C 302.023438 261.5625 295.816406 260.097656 289.980469 262.597656 C 284.730469 264.847656 281.585938 269.53125 282.359375 273.582031 C 282.382812 273.691406 282.441406 273.773438 282.542969 273.820312 C 282.644531 273.871094 282.742188 273.871094 282.84375 273.820312 C 288.878906 270.871094 299.222656 269.203125 303.796875 266.097656 Z M 303.796875 266.097656 " fill-opacity="1" fill-rule="nonzero"/><path fill="#391c10" d="M 253.324219 246.320312 C 253.226562 246.214844 253.113281 246.132812 252.984375 246.078125 C 252.851562 246.019531 252.71875 245.992188 252.574219 245.992188 C 252.433594 245.992188 252.296875 246.019531 252.167969 246.078125 C 252.035156 246.132812 251.921875 246.214844 251.828125 246.320312 C 251.59375 246.5625 251.386719 246.824219 251.207031 247.109375 C 248.960938 250.484375 250.917969 255.617188 255.46875 258.613281 C 256.761719 259.527344 258.183594 260.136719 259.734375 260.4375 C 261.289062 260.738281 262.835938 260.703125 264.375 260.335938 C 264.582031 260.277344 264.695312 260.140625 264.722656 259.925781 C 264.746094 259.710938 264.664062 259.550781 264.472656 259.445312 C 258.28125 255.855469 256.605469 250.160156 253.324219 246.320312 Z M 253.324219 246.320312 " fill-opacity="1" fill-rule="nonzero"/><path fill="#391c10" d="M 265.171875 258.5 C 265.335938 258.632812 265.523438 258.726562 265.726562 258.785156 C 265.929688 258.84375 266.136719 258.863281 266.347656 258.839844 C 266.558594 258.816406 266.753906 258.753906 266.941406 258.652344 C 267.125 258.550781 267.285156 258.417969 267.417969 258.253906 C 267.507812 258.140625 267.589844 258.015625 267.667969 257.902344 C 269.914062 254.527344 267.960938 249.382812 263.40625 246.390625 C 262.085938 245.449219 260.625 244.835938 259.03125 244.546875 C 257.4375 244.257812 255.855469 244.320312 254.289062 244.734375 C 254.140625 244.78125 254.015625 244.863281 253.914062 244.980469 C 253.808594 245.09375 253.742188 245.226562 253.707031 245.378906 C 253.671875 245.53125 253.679688 245.679688 253.726562 245.828125 C 253.769531 245.976562 253.851562 246.101562 253.964844 246.207031 C 257.71875 249.742188 261.6875 255.609375 265.171875 258.5 Z M 265.171875 258.5 " fill-opacity="1" fill-rule="nonzero"/><path fill="#391c10" d="M 192.269531 290.894531 C 192.136719 290.859375 192.007812 290.847656 191.871094 290.867188 C 191.738281 290.886719 191.613281 290.933594 191.5 291.003906 C 191.382812 291.074219 191.289062 291.167969 191.214844 291.28125 C 191.136719 291.390625 191.089844 291.515625 191.066406 291.648438 C 191.011719 291.960938 190.984375 292.277344 190.988281 292.59375 C 190.988281 296.421875 195.234375 299.496094 200.429688 299.472656 C 201.9375 299.507812 203.386719 299.234375 204.777344 298.644531 C 206.167969 298.054688 207.375 297.207031 208.398438 296.09375 C 208.53125 295.9375 208.546875 295.769531 208.453125 295.585938 C 208.359375 295.40625 208.210938 295.324219 208.007812 295.339844 C 201.195312 295.835938 196.898438 292.210938 192.269531 290.894531 Z M 192.269531 290.894531 " fill-opacity="1" fill-rule="nonzero"/><path fill="#391c10" d="M 208.085938 294.304688 C 208.289062 294.324219 208.492188 294.304688 208.6875 294.246094 C 208.886719 294.183594 209.0625 294.085938 209.222656 293.957031 C 209.382812 293.824219 209.507812 293.664062 209.601562 293.480469 C 209.699219 293.296875 209.753906 293.105469 209.773438 292.898438 C 209.773438 292.761719 209.773438 292.617188 209.773438 292.480469 C 209.773438 288.65625 205.523438 285.582031 200.328125 285.605469 C 198.789062 285.554688 197.308594 285.835938 195.894531 286.449219 C 194.476562 287.058594 193.257812 287.941406 192.234375 289.09375 C 192.144531 289.210938 192.085938 289.339844 192.0625 289.484375 C 192.042969 289.632812 192.058594 289.773438 192.109375 289.910156 C 192.164062 290.050781 192.246094 290.164062 192.363281 290.257812 C 192.476562 290.351562 192.605469 290.410156 192.75 290.433594 C 197.5625 291.289062 203.800781 293.796875 208.085938 294.304688 Z M 208.085938 294.304688 " fill-opacity="1" fill-rule="nonzero"/><path fill="#845729" d="M 309.542969 219.722656 C 309.410156 219.695312 309.28125 219.691406 309.148438 219.71875 C 309.015625 219.746094 308.898438 219.800781 308.789062 219.882812 C 308.679688 219.960938 308.59375 220.0625 308.53125 220.179688 C 308.464844 220.296875 308.429688 220.421875 308.417969 220.558594 C 308.390625 220.867188 308.390625 221.179688 308.417969 221.492188 C 308.765625 225.226562 313.140625 227.871094 318.199219 227.410156 C 319.671875 227.332031 321.066406 226.953125 322.375 226.273438 C 323.6875 225.589844 324.796875 224.667969 325.707031 223.503906 C 325.816406 223.339844 325.816406 223.171875 325.710938 223.007812 C 325.605469 222.839844 325.453125 222.769531 325.257812 222.796875 C 318.703125 223.808594 314.175781 220.636719 309.542969 219.722656 Z M 309.542969 219.722656 " fill-opacity="1" fill-rule="nonzero"/><g clip-path="url(#e35e02ad96)"><path fill="#845729" d="M 325.257812 221.761719 C 325.460938 221.765625 325.65625 221.730469 325.847656 221.65625 C 326.035156 221.578125 326.203125 221.46875 326.347656 221.328125 C 326.488281 221.183594 326.601562 221.019531 326.675781 220.828125 C 326.753906 220.640625 326.789062 220.445312 326.789062 220.242188 C 326.789062 220.105469 326.789062 219.984375 326.789062 219.847656 C 326.449219 216.109375 322.078125 213.453125 317.007812 213.914062 C 315.5 213.992188 314.078125 214.386719 312.746094 215.101562 C 311.414062 215.8125 310.296875 216.777344 309.398438 217.992188 C 309.316406 218.113281 309.273438 218.246094 309.261719 218.390625 C 309.253906 218.535156 309.28125 218.671875 309.34375 218.804688 C 309.40625 218.933594 309.5 219.039062 309.617188 219.121094 C 309.738281 219.203125 309.871094 219.25 310.015625 219.261719 C 314.738281 219.667969 321.042969 221.636719 325.257812 221.761719 Z M 325.257812 221.761719 " fill-opacity="1" fill-rule="nonzero"/></g><path fill="#391c10" d="M 107.886719 237.382812 C 107.8125 237.171875 107.671875 237.019531 107.460938 236.929688 C 107.253906 236.839844 107.046875 236.84375 106.839844 236.933594 C 106.613281 237.035156 106.398438 237.15625 106.191406 237.292969 C 103.671875 239.015625 103.523438 243.191406 105.863281 246.601562 C 106.503906 247.621094 107.324219 248.460938 108.328125 249.121094 C 109.328125 249.78125 110.421875 250.207031 111.609375 250.394531 C 111.769531 250.410156 111.886719 250.347656 111.964844 250.203125 C 112.042969 250.0625 112.03125 249.925781 111.933594 249.800781 C 108.652344 245.523438 109.113281 241.03125 107.886719 237.382812 Z M 107.886719 237.382812 " fill-opacity="1" fill-rule="nonzero"/><path fill="#391c10" d="M 112.722656 249.371094 C 112.796875 249.515625 112.902344 249.640625 113.027344 249.746094 C 113.15625 249.847656 113.296875 249.921875 113.457031 249.96875 C 113.613281 250.015625 113.773438 250.027344 113.9375 250.007812 C 114.101562 249.988281 114.253906 249.9375 114.394531 249.855469 L 114.675781 249.675781 C 117.195312 247.953125 117.339844 243.789062 115.003906 240.367188 C 114.347656 239.328125 113.5 238.476562 112.46875 237.8125 C 111.433594 237.148438 110.308594 236.738281 109.089844 236.574219 C 108.972656 236.566406 108.863281 236.585938 108.757812 236.636719 C 108.652344 236.6875 108.566406 236.761719 108.5 236.855469 C 108.433594 236.953125 108.394531 237.058594 108.382812 237.171875 C 108.371094 237.289062 108.390625 237.402344 108.4375 237.507812 C 110.011719 241.066406 111.113281 246.332031 112.722656 249.371094 Z M 112.722656 249.371094 " fill-opacity="1" fill-rule="nonzero"/><path fill="#391c10" d="M 56.46875 160.15625 C 56.519531 160.0625 56.546875 159.960938 56.554688 159.851562 C 56.5625 159.746094 56.546875 159.640625 56.507812 159.539062 C 56.46875 159.4375 56.414062 159.351562 56.339844 159.273438 C 56.261719 159.195312 56.175781 159.136719 56.074219 159.097656 C 55.839844 159.007812 55.601562 158.933594 55.355469 158.886719 C 52.375 158.289062 49.304688 161.136719 48.496094 165.132812 C 48.222656 166.300781 48.199219 167.472656 48.429688 168.652344 C 48.660156 169.828125 49.121094 170.90625 49.8125 171.886719 C 49.914062 172.011719 50.046875 172.050781 50.199219 172.003906 C 50.355469 171.957031 50.441406 171.855469 50.464844 171.695312 C 51.195312 166.335938 54.703125 163.546875 56.46875 160.15625 Z M 56.46875 160.15625 " fill-opacity="1" fill-rule="nonzero"/><path fill="#391c10" d="M 51.285156 171.921875 C 51.234375 172.078125 51.21875 172.238281 51.234375 172.402344 C 51.25 172.566406 51.296875 172.722656 51.375 172.867188 C 51.457031 173.011719 51.558594 173.136719 51.6875 173.238281 C 51.816406 173.34375 51.957031 173.417969 52.117188 173.460938 L 52.429688 173.539062 C 55.410156 174.125 58.480469 171.289062 59.277344 167.28125 C 59.5625 166.09375 59.582031 164.898438 59.335938 163.699219 C 59.089844 162.5 58.601562 161.410156 57.871094 160.429688 C 57.796875 160.339844 57.707031 160.273438 57.597656 160.230469 C 57.488281 160.191406 57.375 160.179688 57.257812 160.199219 C 57.144531 160.21875 57.039062 160.261719 56.949219 160.335938 C 56.859375 160.410156 56.792969 160.5 56.746094 160.609375 C 55.308594 164.222656 52.328125 168.65625 51.285156 171.921875 Z M 51.285156 171.921875 " fill-opacity="1" fill-rule="nonzero"/><g clip-path="url(#26dbd27092)"><path fill="#754c28" d="M 220.304688 118.207031 C 219.457031 119.953125 218.359375 121.527344 217.015625 122.925781 C 215.671875 124.328125 214.144531 125.484375 212.4375 126.402344 C 214.8125 123.429688 216.640625 120.152344 217.917969 116.570312 C 219.199219 112.988281 219.859375 109.292969 219.902344 105.488281 C 220.101562 85.125 197.652344 77.617188 196.597656 61.21875 C 196.046875 52.484375 198.609375 48.949219 200.070312 43.917969 C 195.707031 45.042969 181.09375 54.285156 181.363281 73.183594 C 181.710938 97.023438 201.824219 100.074219 203.902344 112.578125 C 204.136719 114.007812 204.277344 115.445312 204.332031 116.890625 C 198.371094 116.5625 192.144531 116.382812 185.738281 116.382812 L 183.195312 116.382812 C 183.410156 118.835938 182.363281 122.832031 180.949219 125.828125 C 181.1875 121.519531 180.527344 117.355469 178.96875 113.332031 C 175.339844 105.824219 166.882812 101.851562 165.332031 91.835938 C 164.46875 86.207031 166.648438 83.765625 167.636719 80.453125 C 164.757812 81.1875 155.125 87.285156 155.269531 99.746094 C 155.40625 108.753906 159.835938 113.253906 163.847656 117.046875 C 131.933594 119.175781 108.640625 125.851562 108.640625 133.75 C 108.640625 143.363281 143.152344 151.164062 185.738281 151.164062 C 228.320312 151.164062 262.820312 143.363281 262.820312 133.75 C 262.84375 126.929688 245.519531 121.03125 220.304688 118.207031 Z M 220.304688 118.207031 " fill-opacity="1" fill-rule="nonzero"/></g></svg>